<?xml version="1.0" encoding="UTF-8"?>
<svg id="Layer_1" xmlns="http://www.w3.org/2000/svg" version="1.1" xmlns:xlink="http://www.w3.org/1999/xlink" viewBox="0 0 595.28 292.56">
  <!-- Generator: Adobe Illustrator 29.7.1, SVG Export Plug-In . SVG Version: 2.1.1 Build 8)  -->
  <defs>
    <style>
      .st0 {
        fill: #0a41f4;
      }

      .st1 {
        fill: #fff;
      }

      .st2 {
        fill: url(#linear-gradient1);
      }

      .st3 {
        fill: url(#linear-gradient);
      }
    </style>
    <linearGradient id="linear-gradient" x1="112.81" y1="21.36" x2="112.81" y2="204.52" gradientUnits="userSpaceOnUse">
      <stop offset="0" stop-color="#0b8bf6"/>
      <stop offset="1" stop-color="#0a41f4"/>
    </linearGradient>
    <linearGradient id="linear-gradient1" x1="88.4" y1="65.8" x2="88.4" y2="221.67" xlink:href="#linear-gradient"/>
  </defs>
  <g>
    <path class="st1" d="M151.06,167.39l13.33-15.92c7.96,6.67,16.12,9.85,23.48,9.85,2.99,0,5.07-1.09,5.07-3.08,0-2.19-1.29-2.89-11.44-6.67-12.93-4.78-19-9.35-19-19.6,0-13.43,12.34-24.38,31.34-24.38,12.44,0,23.48,3.98,31.04,10.45l-13.33,15.92c-5.27-4.28-12.73-7.76-20.1-7.76-2.99,0-5.07.8-5.07,2.79,0,2.09,1.49,2.49,11.14,6.07,11.84,4.38,19.4,9.35,19.4,20,0,14.03-11.54,24.97-31.54,24.97-13.83,0-25.87-4.97-34.32-12.63Z"/>
    <path class="st1" d="M234.83,108.99h23.38c12.83,0,20.69,2.49,25.87,7.66,3.68,3.68,5.47,8.56,5.47,14.03,0,17.41-13.13,29.05-35.22,29.05h-9.85l-5.07,18.9h-23.28l18.7-69.64ZM253.14,143.11c8.85,0,12.93-3.98,12.93-9.25,0-1.49-.6-2.98-1.69-4.08-1.59-1.59-4.38-2.19-6.96-2.19h-4.38l-4.08,15.52h4.18Z"/>
    <path class="st1" d="M301,108.99h27.16c12.83,0,20.99,2.79,25.67,7.46,3.88,3.88,5.47,9.05,5.47,14.53,0,10.84-5.67,20.2-19.4,24.47l9.65,23.18h-25.07l-7.76-19.9h-5.77l-5.37,19.9h-23.28l18.7-69.64ZM323.78,142.12c7.76,0,11.84-3.58,11.84-7.96,0-1.39-.5-2.69-1.49-3.68-1.29-1.29-3.58-1.99-6.86-1.99h-8.26l-3.68,13.63h8.46Z"/>
    <path class="st1" d="M372.13,108.99h23.28l-18.7,69.64h-23.28l18.7-69.64Z"/>
    <path class="st1" d="M443.08,133.69l-2.3,8.53-15.82-33.23h-21.79l-18.7,69.64h23.08l9.35-34.62,16.52,34.62h20.69l12.07-44.94h-23.1Z"/>
    <path class="st1" d="M474.91,128.69h-30.5l5.27-19.7h74.28l-5.27,19.7h-20.49l-13.43,49.94h-23.28l13.43-49.94Z"/>
  </g>
  <g>
    <path class="st3" d="M129.9,103.16v43.07l-24.41-12.88-9.76-5.16v-63.2l14.03,7.41c11.12,5.87,20.14,19.64,20.14,30.76Z"/>
    <path class="st2" d="M71.31,90.75l34.17,18.04v118.78l-14.04-7.41c-11.12-5.87-20.14-19.64-20.14-30.77v-98.64Z"/>
    <polygon class="st0" points="129.9 146.15 129.9 146.23 105.49 133.35 105.49 108.78 129.9 146.15"/>
  </g>
  <g>
    <path class="st1" d="M202.34,217.69c-3.26,0-5.77-1.08-8.21-3.26l.99-1.14c2.24,2.07,4.31,3.03,7.31,3.03s5.16-1.72,5.16-4.05v-.06c0-2.16-1.14-3.41-5.77-4.34-4.89-.99-6.87-2.65-6.87-5.74v-.06c0-3.03,2.77-5.36,6.55-5.36,2.97,0,4.92.82,6.99,2.48l-.96,1.19c-1.92-1.66-3.85-2.3-6.09-2.3-3,0-4.98,1.72-4.98,3.85v.06c0,2.15,1.11,3.46,5.94,4.46,4.72.96,6.7,2.65,6.7,5.62v.06c0,3.29-2.83,5.56-6.76,5.56Z"/>
    <path class="st1" d="M223.4,217.75c-6.17,0-10.22-4.92-10.22-10.49v-.06c0-5.56,4.11-10.54,10.28-10.54s10.22,4.92,10.22,10.49t0,.06c0,5.56-4.11,10.54-10.28,10.54ZM232.11,207.2c0-5.04-3.67-9.18-8.71-9.18s-8.65,4.08-8.65,9.12v.06c0,5.04,3.67,9.18,8.71,9.18s8.65-4.08,8.65-9.12v-.06Z"/>
    <path class="st1" d="M240.34,198.4v8.36h11.54v1.4h-11.54v9.23h-1.51v-20.39h14.36v1.4h-12.85Z"/>
    <path class="st1" d="M265.1,198.4v18.99h-1.51v-18.99h-7.11v-1.4h15.73v1.4h-7.11Z"/>
    <path class="st1" d="M297.02,217.54h-1.22l-5.97-17.71-5.97,17.71h-1.22l-7.4-20.54h1.69l6.41,18.15,5.97-18.21h1.17l5.97,18.21,6.41-18.15h1.57l-7.4,20.54Z"/>
    <path class="st1" d="M323.32,217.4l-2.59-5.71h-12.03l-2.59,5.71h-1.57l9.5-20.54h1.46l9.5,20.54h-1.66ZM314.72,198.52l-5.39,11.8h10.75l-5.36-11.8Z"/>
    <path class="st1" d="M343.97,217.4l-6.5-8.45h-6.67v8.45h-1.51v-20.39h8.56c4.4,0,7.28,2.39,7.28,5.8v.06c0,3.41-2.53,5.36-5.97,5.83l6.73,8.71h-1.92ZM343.62,202.86c0-2.74-2.16-4.46-5.86-4.46h-6.96v9.18h6.88c3.41,0,5.94-1.72,5.94-4.66v-.06Z"/>
    <path class="st1" d="M350.34,217.4v-20.39h14.51v1.4h-12.99v8.01h11.68v1.4h-11.68v8.18h13.14v1.4h-14.65Z"/>
    <path class="st1" d="M393.15,217.4v-9.55h-13.05v9.55h-1.51v-20.39h1.51v9.44h13.05v-9.44h1.51v20.39h-1.51Z"/>
    <path class="st1" d="M410.04,217.75c-6.17,0-10.22-4.92-10.22-10.49v-.06c0-5.56,4.11-10.54,10.28-10.54s10.22,4.92,10.22,10.49t0,.06c0,5.56-4.11,10.54-10.28,10.54ZM418.75,207.2c0-5.04-3.67-9.18-8.71-9.18s-8.65,4.08-8.65,9.12v.06c0,5.04,3.67,9.18,8.71,9.18s8.65-4.08,8.65-9.12v-.06Z"/>
    <path class="st1" d="M433.51,217.72c-4.89,0-8.36-3.09-8.36-8.8v-11.91h1.51v11.77c0,4.81,2.59,7.57,6.9,7.57s6.79-2.5,6.79-7.43v-11.91h1.51v11.74c0,5.86-3.41,8.97-8.36,8.97Z"/>
    <path class="st1" d="M454.51,217.69c-3.26,0-5.77-1.08-8.21-3.26l.99-1.14c2.24,2.07,4.31,3.03,7.31,3.03s5.16-1.72,5.16-4.05v-.06c0-2.16-1.14-3.41-5.77-4.34-4.89-.99-6.87-2.65-6.87-5.74v-.06c0-3.03,2.77-5.36,6.55-5.36,2.97,0,4.92.82,6.99,2.48l-.96,1.19c-1.92-1.66-3.85-2.3-6.09-2.3-3,0-4.98,1.72-4.98,3.85v.06c0,2.15,1.11,3.46,5.94,4.46,4.72.96,6.7,2.65,6.7,5.62v.06c0,3.29-2.83,5.56-6.76,5.56Z"/>
    <path class="st1" d="M466.25,217.4v-20.39h14.51v1.4h-12.99v8.01h11.68v1.4h-11.68v8.18h13.14v1.4h-14.65Z"/>
  </g>
</svg>